{"title":"GOON 2011 VODRIP-PA","uid":7057325,"size":836655104,"categoryP":"video","categoryS":"movies","magnet":"?xt=urn:btih:a091643c1117b0eeae5f83bb1b393b8dc1ab93a2&amp;dn=GOON+2011+VODRIP-PA&amp;tr=udp%3A%2F%2Ftracker.openbittorrent.com%3A80&amp;tr=udp%3A%2F%2Fopen.demonii.com%3A1337&amp;tr=udp%3A%2F%2Ftracker.coppersurfer.tk%3A6969&amp;tr=udp%3A%2F%2Fexodus.desync.com%3A6969","seeders":1,"leechers":0,"uploader":"MScope40","files":-1,"time":1330181436,"description":"\nPlot\nLabeled an outcast by his brainy family, a bouncer overcomes long odds to lead a team of under performing misfits to semi-pro hockey glory, beating the crap out of everything that stands in his way.\n\nFormat : AVI\nFormat/Info : Audio Video Interleave\nFile size : 798 MiB\nDuration : 1h 31mn\nOverall bit rate : 1 217 Kbps\nWriting application : VirtualDubMod 1.5.10.2 (build 2542/release)\nWriting library : VirtualDubMod build 2542/release\n\nVideo\nID : 0\nFormat : MPEG-4 Visual\nFormat profile : Advanced Simple@L5\nFormat settings, BVOP : 1\nFormat settings, QPel : No\nFormat settings, GMC : No warppoints\nFormat settings, Matrix : Default (H.263)\nMuxing mode : Packed bitstream\nCodec ID : XVID\nCodec ID/Hint : XviD\nDuration : 1h 31mn\nBit rate : 1 080 Kbps\nWidth : 704 pixels\nHeight : 396 pixels\nDisplay aspect ratio : 16:9\nFrame rate : 23.976 fps\nColor space : YUV\nChroma subsampling : 4:2:0\nBit depth : 8 bits\nScan type : Progressive\nCompression mode : Lossy\nBits/(Pixel*Frame) : 0.162\nStream size : 708 MiB (89%)\nWriting library : XviD 62\n\nAudio\nID : 1\nFormat : MPEG Audio\nFormat version : Version 1\nFormat profile : Layer 3\nMode : Joint stereo\nMode extension : MS Stereo\nCodec ID : 55\nCodec ID/Hint : MP3\nDuration : 1h 31mn\nBit rate mode : Constant\nBit rate : 128 Kbps\nChannel(s) : 2 channels\nSampling rate : 44.1 KHz\nCompression mode : Lossy\nStream size : 83.9 MiB (11%)\nAlignment : Split accross interleaves\nInterleave, duration : 42 ms (1.00 video frame)\nInterleave, preload duration : 500 ms\nWriting library : LAME3.98.2\n &lt;a href=&quot;\nhttp://www.aedes.us/e/ImRGE.png&quot; rel=&quot;nofollow&quot; target=&quot;_NEW&quot;&gt;\nhttp://www.aedes.us/e/ImRGE.png&lt;/a&gt;\n &lt;a href=&quot;\nhttp://www.aedes.us/e/SeWXc.png&quot; rel=&quot;nofollow&quot; target=&quot;_NEW&quot;&gt;\nhttp://www.aedes.us/e/SeWXc.png&lt;/a&gt;","torrent":{"xt":"urn:btih:a091643c1117b0eeae5f83bb1b393b8dc1ab93a2","amp;dn":"GOON+2011+VODRIP-PA","amp;tr":["udp%3A%2F%2Ftracker.openbittorrent.com%3A80","udp%3A%2F%2Fopen.demonii.com%3A1337","udp%3A%2F%2Ftracker.coppersurfer.tk%3A6969","udp%3A%2F%2Fexodus.desync.com%3A6969"],"infoHash":"a091643c1117b0eeae5f83bb1b393b8dc1ab93a2","infoHashBuffer":{"type":"Buffer","data":[160,145,100,60,17,23,176,238,174,95,131,187,27,57,59,141,193,171,147,162]},"announce":[],"urlList":[]}}